<?xml version="1.0" encoding="utf-8"?>
<!-- Generator: Adobe Illustrator 22.0.1, SVG Export Plug-In . SVG Version: 6.00 Build 0)  -->
<svg version="1.1" id="Layer_1" xmlns="http://www.w3.org/2000/svg" xmlns:xlink="http://www.w3.org/1999/xlink" x="0px" y="0px"
	 viewBox="0 0 385.7 386.1" style="enable-background:new 0 0 385.7 386.1;" xml:space="preserve">
<style type="text/css">
	.st0{fill:#FFFFFF;}
</style>
<title>schoolicon</title>
<g id="Layer_2_1_">
	<g id="Layer_1-2">
		<path d="M385.7,181.5c-0.1-1.5-0.2-3-0.3-4.5C376.3,71,283-7.6,177,1.5C88.8,8.9,17,75.4,2.9,162.8c-1.2,7.6-2,15.2-2.3,22.9
			c0,0.3-0.1,0.6-0.2,0.9v14.1c0.2,1.9,0.3,3.7,0.4,5.6C6.6,295,72.4,368.3,160,383.6c12.3,2.2,24.8,3.1,37.2,2.8
			c37.3-0.9,71.6-11.5,102.6-32.1c44.8-29.7,75.2-76.8,83.7-129.9c1.3-7.9,2-15.8,2.3-23.7c0-0.3,0.1-0.5,0.2-0.8v-12.2
			C385.9,185.5,385.8,183.5,385.7,181.5z M325.2,320.1c-3.6,3.8-7.3,7.4-11.2,10.6c-25.9,22.8-57.9,38-92.4,43.5
			c-10.7,1.7-21.5,2.4-32.4,2.2c-45-1.4-84.4-16.9-118.2-46.7c-0.5-0.4-0.8-0.8-1-1.3l-6.2-4.8c-7.2-7.3-13.6-15.1-19.1-23.3
			c-14.9-20.6-25.2-43.4-30.3-68.8C4.3,181,13,133.9,41.9,91.2c1.1-1.7,2.3-3.3,3.5-5C104.2,4.7,218.1-13.8,299.7,45.1
			c82.2,59.3,95.6,165.5,51.5,240.1C344.9,298.2,336.3,309.8,325.2,320.1z"/>
		<path class="st0" d="M0.4,200.7c0.2,1.9,0.3,3.7,0.4,5.6C6.7,295,72.4,368.2,160,383.6c12.3,2.2,24.8,3.1,37.2,2.8
			c37.3-0.9,71.6-11.5,102.7-32.1c44.8-29.7,75.2-76.8,83.7-129.9c1.3-7.8,2-15.8,2.3-23.7c0-0.3,0.1-0.5,0.2-0.8v186.9H0.4V200.7z"
			/>
		<path class="st0" d="M386.1,187.6c-0.1-2-0.3-4-0.4-6.1c-4.9-77.6-55.9-144.7-129.4-170.2C192.8-10.6,122.6,2.1,70.8,44.6
			C34.5,74.4,10.4,116.4,2.9,162.7c-1.2,7.6-2,15.2-2.3,22.9c0,0.3-0.1,0.6-0.2,0.9V0.6h385.7V187.6z"/>
		<path class="st0" d="M275.8,351.8c-18.3,9.6-38,14-59.1,13.2c-3.1,0-6.3-0.1-9.4-0.3c-11.2,3-22.8,4.2-34.9,3.8
			c-27.7-0.1-53.5-7.1-77.5-21l-24.8-19.2c0.2,0.5,0.6,0.9,1,1.3c33.8,29.8,73.2,45.4,118.2,46.7c10.8,0.3,21.7-0.4,32.4-2.2
			c35.5-5.6,68.4-21.5,94.7-45.4C304.4,339.2,291,346.9,275.8,351.8z"/>
		<path class="st0" d="M18.9,214.9c-0.4-11.9,0.8-23.3,3.6-34.3c-0.6-22.9,4.3-44.3,14.7-64.2C44.1,95.3,55.9,77,72.5,61.6
			c15.5-16.6,33.8-28.4,54.9-35.3c20.3-10.7,42.2-15.6,65.7-14.7c30.8,0.1,59.5,7.9,86.1,23.3c11.5,8.9,23,17.8,34.5,26.7
			c21.1,21.3,35.8,46.4,43.9,75.3l2.8,20.6c1.6,4.3,3.1,8.7,4.3,13.2l5.5,40.8c0.8,21.1-3.6,40.9-13.2,59.1c-1.6,5-3.6,9.8-5.8,14.5
			c44.2-74.6,30.8-180.7-51.5-240.1c-1.6-1.2-3.3-2.3-4.9-3.4C211.3-14.5,98,7.7,41.9,91.2C13,133.9,4.3,181,14.5,231.4
			c5.1,25.2,15.2,47.9,30,68.4c-8.9-13.4-15.6-28-20.1-44C22.6,242.2,20.7,228.6,18.9,214.9z"/>
	</g>
</g>
<g>
	<g>
		<path d="M314,99.1h-60.4V87c0-13.3-10.8-24.1-24.1-24.1H157c-13.3,0-24.1,10.8-24.1,24.1v12.1H72.5c-13.3,0-24.1,10.8-24.1,24.1
			v156.9c0,13.3,10.8,24.1,24.1,24.1H314c13.3,0,24.1-10.8,24.1-24.1V123.3C338.1,109.9,327.3,99.1,314,99.1z M145,87
			c0-6.7,5.4-12.1,12.1-12.1h72.4c6.7,0,12.1,5.4,12.1,12.1v12.1H145V87z M326,280.2c0,6.7-5.4,12.1-12.1,12.1H72.5
			c-6.7,0-12.1-5.4-12.1-12.1v-87.9c3.6,2.1,7.7,3.4,12.1,3.4h96.6v18.1c0,3.3,2.7,6,6,6h36.2c3.3,0,6-2.7,6-6v-18.1H314
			c4.4,0,8.5-1.3,12.1-3.4L326,280.2L326,280.2z M181.2,207.8v-24.1h24.1v24.1H181.2z M326,171.5c0,6.7-5.4,12.1-12.1,12.1h-96.6v-6
			c0-3.3-2.7-6-6-6h-36.2c-3.3,0-6,2.7-6,6v6H72.5c-6.7,0-12.1-5.4-12.1-12.1v-48.3c0-6.7,5.4-12.1,12.1-12.1H314
			c6.7,0,12.1,5.4,12.1,12.1V171.5z"/>
	</g>
</g>
</svg>
