<svg xmlns="http://www.w3.org/2000/svg" viewBox="0 0 385.92 385.64"><defs><style>.cls-1{fill:#229aab;}</style></defs><title>4</title><g id="Layer_2" data-name="Layer 2"><g id="Layer_1-2" data-name="Layer 1"><g id="Layer_2-2" data-name="Layer 2"><g id="Layer_1-2-2" data-name="Layer 1-2"><path class="cls-1" d="M0,185.89a6.1,6.1,0,0,0,.44-1.44,191,191,0,0,1,20.47-78.56,188.82,188.82,0,0,1,33.42-47A192.75,192.75,0,0,1,167.58,1.74,183.55,183.55,0,0,1,200.7.18Q263.28,3,312.63,41.65A193,193,0,0,1,383,159.89a173,173,0,0,1,2.5,22.37c.07,1.53.3,3.06.45,4.59v12.24a9.89,9.89,0,0,0-.4,1.67c-.46,5.53-.67,11.09-1.35,16.59a186.6,186.6,0,0,1-7.92,35.38,190.17,190.17,0,0,1-34.19,62.37,192.4,192.4,0,0,1-84.58,59.51,181.7,181.7,0,0,1-34,8.6,202.88,202.88,0,0,1-22.14,2.2,182.63,182.63,0,0,1-24.2-.38c-40.06-3.59-75.8-17.93-106.84-43.55a190.67,190.67,0,0,1-59.57-85.84,174.08,174.08,0,0,1-8.31-34.1c-.85-6.32-1.31-12.7-2-19-.09-.9-.3-1.79-.45-2.68Zm375.72,6.6c0-2,0-4,0-6a173.78,173.78,0,0,0-3.3-29.39q-11.13-55.35-51.47-94.9a183.68,183.68,0,0,0-61.55-39.88A175.29,175.29,0,0,0,209,10.54C201.93,10,194.79,10,187.68,10A144.65,144.65,0,0,0,165,12,182.18,182.18,0,0,0,60.42,66.86a190.19,190.19,0,0,0-32.83,47.83,172.53,172.53,0,0,0-17.45,71.62,192.92,192.92,0,0,0,2.55,36.15,167.35,167.35,0,0,0,7.91,31.59c10.69,29,26.67,54.4,50.13,74.84A195.52,195.52,0,0,0,111,356.35c24.58,12.4,50.73,18.45,78.15,19.29a165.48,165.48,0,0,0,24.88-1.17,185.92,185.92,0,0,0,24.86-4.72,180.56,180.56,0,0,0,70.43-36c5.68-4.7,10.83-10.06,16.23-15.1a105.38,105.38,0,0,0,16.73-19.54c3.34-5.15,6.27-10.57,9.35-15.89C367.89,255.18,375.62,224.84,375.72,192.49Z"/><path class="cls-1" d="M132.68,98.29c0-.68,0-1.23,0-1.78.09-4.72-.21-9.47.34-14.13,1.24-10.46,10.51-19.13,21-20.11,1.23-.11,2.48-.18,3.71-.18q35.76,0,71.52,0A24.14,24.14,0,0,1,253.4,86.26v12h1.47c19.28,0,38.56.19,57.84-.07A24.73,24.73,0,0,1,338,123.5c-.13,51.44-.05,102.87-.06,154.31,0,1.51-.08,3-.22,4.54-1,10.59-10.34,19.88-20.94,20.91-1.39.13-2.79.22-4.18.22q-119.58,0-239.14,0a24.84,24.84,0,0,1-14.33-3.95c-7.13-4.82-10.94-11.6-11-20.21q-.09-78.46,0-156.94A24.07,24.07,0,0,1,72.36,98.29q29.4,0,58.79,0ZM168.84,195h-1.68q-47.4,0-94.79,0a20.31,20.31,0,0,1-5.21-.63c-2.33-.61-4.58-1.55-6.91-2.37,0,.26,0,.64,0,1v86.15a12,12,0,0,0,12.45,12.38H313.21c7.28,0,12.49-5.18,12.51-12.44q0-17.81.07-35.63,0-25.12,0-50.27v-1.4a9.9,9.9,0,0,0-.93.37A24.82,24.82,0,0,1,313,195q-47.16,0-94.31,0h-1.62v1.58c0,5.44,0,10.88,0,16.32A5.92,5.92,0,0,1,211,219q-18,0-36,0a5.94,5.94,0,0,1-6.15-6.23c0-4.16,0-8.32,0-12.48Zm48.24-12.16h95.58a18,18,0,0,0,2.75-.14c5.34-.82,10.4-4.93,10.44-12.82q.13-23.34,0-46.68c0-7.56-5.19-12.83-12.42-12.83q-120.42,0-240.83,0A12.08,12.08,0,0,0,60.2,122.78q0,23.82,0,47.64a14.58,14.58,0,0,0,.17,2.38c.83,5.08,5.34,10.06,12.76,10,31.43-.08,62.87,0,94.31,0h1.39c0-2,0-3.75,0-5.54,0-4,2.48-6.46,6.42-6.46h35.4c3.94,0,6.41,2.48,6.42,6.45C217.09,179.06,217.08,180.85,217.08,182.81Zm24.17-84.56c0-4.46.22-8.82-.05-13.16a11.71,11.71,0,0,0-11.74-10.91q-36.39,0-72.8,0A11.64,11.64,0,0,0,145,84.62c-.38,4.45-.15,8.94-.18,13.42,0,.06.09.12.15.21ZM204.92,206.94V183.08H181.06v23.86Z"/></g></g></g></g></svg>