<?xml version="1.0" encoding="utf-8"?>
<!-- Generator: Adobe Illustrator 22.0.1, SVG Export Plug-In . SVG Version: 6.00 Build 0)  -->
<svg version="1.1" id="Layer_1" xmlns="http://www.w3.org/2000/svg" xmlns:xlink="http://www.w3.org/1999/xlink" x="0px" y="0px"
	 viewBox="0 0 385.7 386.1" style="enable-background:new 0 0 385.7 386.1;" xml:space="preserve">
<style type="text/css">
	.st0{fill:#FFFFFF;}
</style>
<title>schoolicon</title>
<g id="Layer_2_1_">
	<g id="Layer_1-2">
		<path d="M385.5,181.5c-0.1-1.5-0.2-3-0.3-4.5C376.2,71,282.9-7.6,176.9,1.5C88.7,8.9,16.9,75.4,2.7,162.8
			c-1.2,7.6-2,15.2-2.3,22.9c0,0.3-0.1,0.6-0.2,0.9v14.1c0.2,1.9,0.3,3.7,0.4,5.6c5.8,88.8,71.5,162,159.2,177.3
			c12.3,2.2,24.8,3.1,37.2,2.8c37.3-0.9,71.6-11.5,102.6-32.1c44.8-29.7,75.2-76.8,83.7-129.9c1.3-7.9,2-15.8,2.3-23.7
			c0-0.3,0.1-0.5,0.2-0.8v-12.2C385.8,185.5,385.7,183.5,385.5,181.5z M325.1,320.1c-3.6,3.8-7.3,7.4-11.2,10.6
			c-25.9,22.8-57.9,38-92.4,43.5c-10.7,1.7-21.5,2.4-32.4,2.2c-45-1.4-84.4-16.9-118.2-46.7c-0.5-0.4-0.8-0.8-1-1.3l-6.2-4.8
			c-7.2-7.3-13.6-15.1-19.1-23.3c-14.9-20.6-25.2-43.4-30.3-68.8C4.1,181,12.9,133.9,41.8,91.2c1.1-1.7,2.3-3.3,3.5-5
			C104.1,4.7,218-13.8,299.6,45.1c82.2,59.3,95.6,165.5,51.5,240.1C344.8,298.2,336.1,309.8,325.1,320.1z"/>
		<path class="st0" d="M0.3,200.7c0.2,1.9,0.3,3.7,0.4,5.6c5.8,88.7,71.6,162,159.2,177.3c12.3,2.2,24.8,3.1,37.2,2.8
			c37.3-0.9,71.6-11.5,102.7-32.1c44.8-29.7,75.2-76.8,83.7-129.9c1.3-7.8,2-15.8,2.3-23.7c0-0.3,0.1-0.5,0.2-0.8v186.9H0.3V200.7z"
			/>
		<path class="st0" d="M386,187.6c-0.1-2-0.3-4-0.4-6.1c-4.9-77.6-55.9-144.7-129.4-170.2C192.7-10.6,122.5,2.1,70.7,44.6
			C34.4,74.4,10.2,116.4,2.7,162.7c-1.2,7.6-2,15.2-2.3,22.9c0,0.3-0.1,0.6-0.2,0.9V0.6H386V187.6z"/>
		<path class="st0" d="M275.7,351.8c-18.3,9.6-38,14-59.1,13.2c-3.1,0-6.3-0.1-9.4-0.3c-11.2,3-22.8,4.2-34.9,3.8
			c-27.7-0.1-53.5-7.1-77.5-21L70,328.3c0.2,0.5,0.6,0.9,1,1.3c33.8,29.8,73.2,45.4,118.2,46.7c10.8,0.3,21.7-0.4,32.4-2.2
			c35.5-5.6,68.4-21.5,94.7-45.4C304.3,339.2,290.8,346.9,275.7,351.8z"/>
		<path class="st0" d="M18.8,214.9c-0.4-11.9,0.8-23.3,3.6-34.3c-0.6-22.9,4.3-44.3,14.7-64.2C44,95.3,55.7,77,72.4,61.6
			c15.5-16.6,33.8-28.4,54.9-35.3c20.3-10.7,42.2-15.6,65.7-14.7c30.8,0.1,59.5,7.9,86.1,23.3c11.5,8.9,23,17.8,34.5,26.7
			c21.1,21.3,35.8,46.4,43.9,75.3l2.8,20.6c1.6,4.3,3.1,8.7,4.3,13.2l5.5,40.8c0.8,21.1-3.6,40.9-13.2,59.1c-1.6,5-3.6,9.8-5.8,14.5
			c44.2-74.6,30.8-180.7-51.5-240.1c-1.6-1.2-3.3-2.3-4.9-3.4C211.1-14.5,97.9,7.7,41.8,91.2C12.9,133.9,4.2,181,14.3,231.4
			c5.1,25.2,15.2,47.9,30,68.4c-8.9-13.4-15.6-28-20.1-44C22.4,242.2,20.6,228.6,18.8,214.9z"/>
	</g>
</g>
<g>
	<path d="M301.7,88.5h-28.1V76.4c0-2.2-1.8-4-4-4h-28.1c-2.2,0-4,1.8-4,4v12.1h-88.4V76.4c0-2.2-1.8-4-4-4h-28.1c-2.2,0-4,1.8-4,4
		v12.1H84.6c-2.2,0-4,1.8-4,4v44.2v172.9c0,2.2,1.8,4,4,4h217.1c2.2,0,4-1.8,4-4V136.7V92.5C305.7,90.3,303.9,88.5,301.7,88.5z
		 M245.4,80.4h20.1v12.1v12.1h-20.1V92.5V80.4z M120.8,80.4h20.1v12.1v12.1h-20.1V92.5V80.4z M88.6,96.5h24.1v12.1c0,2.2,1.8,4,4,4
		h28.1c2.2,0,4-1.8,4-4V96.5h88.4v12.1c0,2.2,1.8,4,4,4h28.1c2.2,0,4-1.8,4-4V96.5h24.1v36.2H88.6V96.5z M88.6,305.6V140.7h209.1
		v164.8H88.6z"/>
	<path d="M225.3,164.9h-28.1h-8H161h-8h-36.2V201v8v28.1v8v36.2h36.2h8h28.1h8h28.1h8h36.2v-36.2v-8v-28.1v-8v-36.2h-36.2H225.3z
		 M197.1,172.9h28.1V201h-28.1V172.9z M225.3,237.2h-28.1v-28.1h28.1V237.2z M161,209.1h28.1v28.1H161V209.1z M161,172.9h28.1V201
		H161V172.9z M124.8,172.9h28.1V201h-28.1V172.9z M124.8,209.1h28.1v28.1h-28.1V209.1z M152.9,273.4h-28.1v-28.1h28.1V273.4z
		 M189.1,273.4H161v-28.1h28.1V273.4z M225.3,273.4h-28.1v-28.1h28.1V273.4z M261.5,273.4h-28.1v-28.1h28.1V273.4z M261.5,237.2
		h-28.1v-28.1h28.1V237.2z M261.5,172.9V201h-28.1v-28.1H261.5z"/>
</g>
</svg>
