<svg xmlns="http://www.w3.org/2000/svg" viewBox="0 0 385.61 385.42"><defs><style>.cls-1{fill:#229aab;}</style></defs><title>1</title><g id="Layer_2" data-name="Layer 2"><g id="Layer_1-2" data-name="Layer 1"><g id="Layer_2-2" data-name="Layer 2"><g id="Layer_1-2-2" data-name="Layer 1-2"><path class="cls-1" d="M193,0C298.77-.36,388.36,86.59,385.55,197.58c-1.31,51.3-20.32,95.77-56.94,131.94-38.6,38.13-85.49,56.93-139.76,55.86-51.48-1-95.89-20-132.23-56.42C17.61,289.85-.54,242,0,186.89,2.43,136.3,20.83,92.56,56.57,56.51A191.77,191.77,0,0,1,193,0Zm182.7,192.46c0-1.44,0-2.88,0-4.31a174.89,174.89,0,0,0-5.41-40.42,179,179,0,0,0-51.5-87.63,183.3,183.3,0,0,0-66-40.27A176.83,176.83,0,0,0,206,10.2c-6.09-.41-12.22-.35-18.33-.34a151,151,0,0,0-22.66,2A182.5,182.5,0,0,0,65.21,61.81a187.44,187.44,0,0,0-30.47,39.31C18.1,129.46,9.67,160,10,192.93a202.13,202.13,0,0,0,2.46,28.85A182.25,182.25,0,0,0,20.82,255a170.76,170.76,0,0,0,23.7,44.52c3.95,5.33,8.11,10.5,12.11,15.78S66,324.64,71,328.94c5.93,5.1,12.08,10,18.48,14.48a174.62,174.62,0,0,0,62.27,27.46,199.67,199.67,0,0,0,30.39,4.33,173.09,173.09,0,0,0,27.42-.36,178.52,178.52,0,0,0,24.4-4,181.3,181.3,0,0,0,76.15-37.82c5.35-4.47,10.22-9.54,15.3-14.34a106.31,106.31,0,0,0,16.4-19c3.57-5.47,6.77-11.2,10-16.87C367.88,254.83,375.6,224.64,375.69,192.46Z"/><path class="cls-1" d="M112.81,87.64V75.78a3.93,3.93,0,0,1,4.27-4.25c7.56,0,15.12,0,22.68,0,1.68,0,3.36,0,5,0a3.8,3.8,0,0,1,4.09,3.8c.13,3.59.07,7.19.09,10.79,0,.47,0,.94,0,1.46h88.32V86.26c0-3.48,0-7,0-10.44a4,4,0,0,1,4.25-4.29q13.8,0,27.59,0c2.72,0,4.28,1.62,4.28,4.35V87.64h27.77a4,4,0,0,1,4.39,4.29c0,.32,0,.64,0,1q0,107.32,0,214.66a9.46,9.46,0,0,1-.19,2.26,3.85,3.85,0,0,1-3.76,2.95H85.14c-3.29,0-4.73-1.44-4.73-4.75q0-107.82,0-215.63a4.43,4.43,0,0,1,4.76-4.79c8.72.13,17.44,0,26.16,0ZM88.48,304.53H297.35V139.94H88.48ZM237,95.79H148.61v11.6c0,2.81-1.56,4.37-4.39,4.37H116.86c-2.78,0-4.36-1.61-4.37-4.42,0-3.44,0-6.88,0-10.32,0-.42,0-.84-.07-1.26H88.51v36h208.6V95.78H273.17c0,3.81,0,7.52,0,11.24,0,3.25-1.52,4.74-4.79,4.74H241.86c-3.42,0-4.89-1.46-4.89-4.87Zm8.39,7.85h19.86v-24H245.36ZM140.65,79.72H120.74v23.91h19.91Z"/><path class="cls-1" d="M269.21,280.41H116.65V164H269.21Zm-44.14-35.84H197.15V272.4h27.92Zm-64.16,27.82h27.91v-27.8H160.91Zm-36.22-27.87v27.87h27.9V244.52Zm72.47-36.13v27.82h27.9V208.39Zm-8.33,0H161v27.8h27.88Zm-36.19,0H124.71v27.83h27.93Zm72.27-36.25H197c0,.46-.06.85-.06,1.24,0,8.44,0,16.87,0,25.31,0,1.13.32,1.4,1.4,1.39,8.44,0,16.88,0,25.32,0,.42,0,.85,0,1.32-.07ZM188.81,200V172.15H160.92V200Zm-64.1-27.89V200H152.6V172.11Zm136.54,0H233.38V200h27.87Zm0,36.24H233.38v27.81h27.87Zm-27.9,64h27.86V244.57H233.35Z"/></g></g></g></g></svg>