<svg xmlns="http://www.w3.org/2000/svg" viewBox="0 0 385.68 385.5"><defs><style>.cls-1{fill:#229aab;}</style></defs><title>2</title><g id="Layer_2" data-name="Layer 2"><g id="Layer_1-2" data-name="Layer 1"><g id="Layer_2-2" data-name="Layer 2"><g id="Layer_1-2-2" data-name="Layer 1-2"><path class="cls-1" d="M0,200.53V185.41a5.43,5.43,0,0,0,.23-.88c.56-6.12,1-12.26,1.69-18.35a166.84,166.84,0,0,1,5.93-27.79A192.74,192.74,0,0,1,160.4,2.71,176.46,176.46,0,0,1,188.74,0c7.46,0,14.94.34,22.39.87A164.32,164.32,0,0,1,243.61,6.7C281.46,17.24,313.4,37.24,339,67.09c28.2,32.94,43.54,71.22,46.27,114.53.09,1.43.3,2.85.45,4.27v13.2a4.86,4.86,0,0,0-.23.89c-.5,6-.79,12.11-1.53,18.13a172.9,172.9,0,0,1-6.46,30.11c-13.66,44-39.51,79.1-77.75,104.87-29.73,20-62.65,30.56-98.42,32.21a188.34,188.34,0,0,1-26.34-.63A192.61,192.61,0,0,1,54.78,327.26,192.25,192.25,0,0,1,.45,204.43C.37,203.13.15,201.83,0,200.53Zm347.07,89.63c44.14-66.38,41.33-173.8-39-239.29C228.09-14.34,110.75-.3,48,81.13c-61.49,79.78-41.6,182.2,11.05,236,0-.42,0-.76,0-1.1,0-4.2,0-8.4,0-12.6,0-1.29-.47-1.79-1.69-2.12a25.36,25.36,0,0,1-18.78-25.44c.25-6.26.71-12.52,1.19-18.77a116.15,116.15,0,0,1,5.82-28.44c1.8-5.34,4.27-10.34,8.26-14.44a13.84,13.84,0,0,1,11.81-4.36c4.66.47,8.14,3,10.82,6.6a49.59,49.59,0,0,1,7.92,17.28,141.21,141.21,0,0,1,4.13,22.43c.45,4.72.88,9.46,1.13,14.2a56,56,0,0,1,0,9.34A25.3,25.3,0,0,1,71,301.24a1.92,1.92,0,0,0-1.71,2.22c.06,7.4,0,14.8,0,22.2a3.73,3.73,0,0,0,1.39,3.14c3.33,2.75,6.58,5.6,10,8.25,31.27,24.34,66.84,36.86,106.34,38.4a170.74,170.74,0,0,0,30.72-1.59,183.07,183.07,0,0,0,117.89-67,5.47,5.47,0,0,0,1.28-3.63q0-71.81,0-143.63v-1.37H281.47c-.36,0-.72,0-1.08,0a5.24,5.24,0,0,1-5.08-6.57c.62-2.36,2.71-3.72,5.74-3.72h55.84c0-1.91,0-3.62,0-5.33a5.06,5.06,0,0,1,9.86-1.53,12.22,12.22,0,0,1,.3,3.43q0,72.06,0,144.11ZM79.91,272.48l-.29,0a42.76,42.76,0,0,0,0-4.67c-.72-6.3-1.45-12.6-2.33-18.87a86.69,86.69,0,0,0-5.88-21.62,17.64,17.64,0,0,0-4.09-6c-2-1.86-4.19-1.8-6.18,0a16.46,16.46,0,0,0-3.73,5.8c-5.29,12.09-7.18,24.92-8.16,37.93-.22,3-.26,6-.42,9-.3,5.68,1,10.76,5.66,14.44,9.08,7.15,21.9,2.87,24.55-7.92A59.83,59.83,0,0,0,79.91,272.48Z"/><path class="cls-1" d="M151.52,302.08V250.9c-1.53,0-3,0-4.54,0a5.65,5.65,0,0,1-4.08-1.4,5,5,0,0,1-1.42-5.38,4.82,4.82,0,0,1,4.25-3.54,9.5,9.5,0,0,1,1.31-.08q45.9,0,91.78,0a5.1,5.1,0,0,1,5,2.86,5,5,0,0,1-.48,5.43,4.89,4.89,0,0,1-4.13,2h-5.1v51.43H279c.44,0,.88,0,1.32,0,3.16.16,5.06,2.06,5.09,5a5,5,0,0,1-5,5.29c-.32,0-.64,0-1,0q-86.86,0-173.72,0c-4.08,0-6.4-4-5.36-6.84.73-2,3.58-3.69,6.09-3.69q22.2.06,44.39.05A6.57,6.57,0,0,0,151.52,302.08Zm46.48,0h25.6V251H198v20.28c.62.19,1.24.34,1.82.58a4.71,4.71,0,0,1,3.2,4.11,4.6,4.6,0,0,1-2.55,4.86,6,6,0,0,1-1.53.65c-.83.19-1,.64-1,1.44.06,2.36,0,4.72,0,7.08ZM162.08,302H187.6V281.77c-3.44-.91-5-2.35-4.91-4.75a6.58,6.58,0,0,1,1.12-3.67c.89-1.08,2.4-1.63,3.79-2.51V251H162.08Z"/><path class="cls-1" d="M223.57,45V35H198v1.46q0,15,0,30a2.41,2.41,0,0,0,1.44,2.26q20.68,12.36,41.34,24.76,15.62,9.38,31.24,18.74c2,1.22,3.42,2.86,3.14,5.35a5.13,5.13,0,0,1-7.78,4c-4.24-2.41-8.38-5-12.56-7.48q-30.21-18.15-60.4-36.32a2.73,2.73,0,0,0-3.2,0Q155.15,99.45,119,121.12c-2.11,1.27-4.27,1.66-6.4.16a5.17,5.17,0,0,1,.48-8.75c5.77-3.51,11.57-7,17.36-10.43q27.87-16.69,55.73-33.38A2.78,2.78,0,0,0,187.7,66c0-11.92,0-23.83,0-35.75,0-3.83,2-5.83,5.86-5.83q17.52,0,35,0c3.24,0,5.39,2,5.42,5.26q.09,10.32,0,20.64a5,5,0,0,1-5.16,5q-10.32,0-20.64,0A5.17,5.17,0,0,1,208.06,45c4.72-.06,9.44,0,14.16,0Z"/><path class="cls-1" d="M192.84,322.73h106.8A11.08,11.08,0,0,1,302,323a5.14,5.14,0,0,1-.5,10.12,17.15,17.15,0,0,1-2,.12q-106.62,0-213.23,0a13.25,13.25,0,0,1-1.67-.08c-3.35-.41-5.08-2.38-4.94-5.6.12-2.71,2.36-4.69,5.45-4.79.36,0,.72,0,1.08,0Z"/><path class="cls-1" d="M254.52,209.7v-75a19,19,0,0,1,.12-3.21,4.89,4.89,0,0,1,5.05-4.21,4.84,4.84,0,0,1,5.1,4.26,12.81,12.81,0,0,1,.16,2.15q0,75.83,0,151.66a12,12,0,0,1-.26,2.61,4.94,4.94,0,0,1-5.38,4,5,5,0,0,1-4.72-4.6,13.47,13.47,0,0,1-.07-1.56Z"/><path class="cls-1" d="M131.08,212.43v74.28a5.11,5.11,0,0,1-7.3,4.86,5.55,5.55,0,0,1-3-5.36q-.06-73.9,0-147.82c0-3.36,1.51-5.34,4.47-5.87a5.08,5.08,0,0,1,5.8,4,9.26,9.26,0,0,1,.13,1.67v74.26Z"/><path class="cls-1" d="M48.84,158.29V160q0,19.14,0,38.27a11,11,0,0,1-.22,2.5,5,5,0,0,1-5.44,3.71,5.12,5.12,0,0,1-4.73-5.12q0-13.86,0-27.72,0-14.2,0-28.43c0-4,3.14-6.46,6.78-5.38a4.78,4.78,0,0,1,3.51,4.25c.11,1.83,0,3.67,0,5.73h55.63a6.28,6.28,0,0,1,4.39,1.25,5,5,0,0,1,1.55,5.55,5.19,5.19,0,0,1-4.5,3.61,13.84,13.84,0,0,1-1.44,0H48.84Z"/><path class="cls-1" d="M182.64,137.9v15a5.15,5.15,0,0,1-5.43,5.4q-9.94,0-19.91,0c-3.6,0-5.65-2-5.65-5.65q0-15,0-30c0-3.67,2-5.64,5.64-5.64H177c3.6,0,5.67,2.07,5.68,5.65C182.65,127.75,182.64,132.82,182.64,137.9Zm-20.56-10.48V147.8h10V127.42Z"/><path class="cls-1" d="M151.64,199.21c0-4.87,0-9.75,0-14.63,0-3.86,2-5.86,5.81-5.88q9.66,0,19.31,0c3.8,0,5.87,2.08,5.87,5.88q0,14.82,0,29.63c0,3.71-2,5.76-5.69,5.79q-9.83.08-19.67,0c-3.73,0-5.62-2-5.63-5.79C151.63,209.21,151.64,204.21,151.64,199.21Zm10.42,10.35h10v-20.4h-10Z"/><path class="cls-1" d="M316.35,266.27c0,5,0,10,0,15-.05,3.59-1.91,5.55-5.47,5.6q-10,.13-20,0c-3.62-.06-5.45-2.1-5.45-5.75q0-15.11,0-30.23a5,5,0,0,1,5.19-5.26q10.06,0,20.15,0c3.67,0,5.63,2,5.64,5.66,0,5,0,10,0,15Zm-20.58,10h10.14V256.06H295.77Z"/><path class="cls-1" d="M316.32,204.49v15.36c0,3-1.87,5.2-4.9,5.23-7.11.09-14.23,0-21.35-.06-2.92-.05-4.7-2.25-4.71-5.43q0-12.66,0-25.31c0-1.72,0-3.44,0-5.16a4.91,4.91,0,0,1,5-5.16c7-.06,14.08-.05,21.12,0a4.86,4.86,0,0,1,4.83,5.07C316.33,194.18,316.32,199.33,316.32,204.49Zm-20.48,10.12h10.07V194.37H295.84Z"/><path class="cls-1" d="M234,137.82c0,5.08,0,10.16,0,15.24a5.09,5.09,0,0,1-5.22,5.23q-10.14,0-20.28,0c-3.22,0-5.43-2-5.45-5.28q-.08-15.54,0-31.07a5,5,0,0,1,5-4.92q10.26,0,20.52,0a5.06,5.06,0,0,1,5.38,5.44c0,5.12,0,10.24,0,15.36Zm-20.58,10h10.14V127.44H213.43Z"/><path class="cls-1" d="M234,199.49c0,5,0,9.91,0,14.87,0,3.58-2.08,5.65-5.65,5.65q-9.84,0-19.67,0c-3.63,0-5.68-2.07-5.68-5.74V184.53c0-3.74,2.05-5.8,5.76-5.8h19.31c3.87,0,5.86,1.88,5.91,5.77C234.08,189.5,234,194.5,234,199.49ZM223.6,189.17c-.38,0-.73-.08-1.07-.08-2.64,0-5.28,0-7.92,0-1,0-1.2.33-1.2,1.24,0,6,0,12.08,0,18.12,0,.38,0,.77.07,1.14H223.6Z"/><path class="cls-1" d="M90,189.22H79.7c0,1.85.07,3.64,0,5.42a5.14,5.14,0,0,1-7.79,4.2,4.85,4.85,0,0,1-2.53-4.35q0-5.34,0-10.68a4.88,4.88,0,0,1,4.86-5.05q10.56-.1,21.11,0c3,0,4.94,2.36,5,5.52q0,11.82,0,23.63c0,2.44,0,4.88,0,7.32A5.13,5.13,0,0,1,95,220.57c-3,0-5.09-2.33-5.08-5.48,0-8.36,0-16.72,0-25.08C90,189.78,90,189.54,90,189.22Z"/></g></g></g></g></svg>