<svg xmlns="http://www.w3.org/2000/svg" viewBox="0 0 385.68 386.13"><defs><style>.cls-1{fill:#fff;}</style></defs><title>schoolicon</title><g id="Layer_2" data-name="Layer 2"><g id="Layer_1-2" data-name="Layer 1"><path d="M0,200.15V186a4.92,4.92,0,0,0,.19-.91,181,181,0,0,1,2.27-22.89A192.87,192.87,0,0,1,176.61.9a192.62,192.62,0,0,1,208.63,180c.13,2,.29,4,.44,6.06v12.24a3.39,3.39,0,0,0-.19.76,181.51,181.51,0,0,1-2.28,23.73,192.73,192.73,0,0,1-83.72,129.94c-31.07,20.66-65.36,31.26-102.65,32.15A188.94,188.94,0,0,1,159.6,383,192.63,192.63,0,0,1,.44,205.7C.32,203.85.15,202,0,200.15Zm347.15,90.29c48.47-74.76,36.54-185-47.85-245.91A182.21,182.21,0,0,0,41.48,90.68C12.61,133.32,3.85,180.43,14,230.83c6.67,33,22,61.71,45,86.75,0-5.05,0-9.73,0-14.41,0-.82-.2-1.13-1.05-1.35A25.67,25.67,0,0,1,38.48,276c.19-5.9.6-11.81,1.14-17.7a126.19,126.19,0,0,1,5.29-27.48c1.88-5.8,4.27-11.36,8.5-15.94a14.28,14.28,0,0,1,16-3.93,18.65,18.65,0,0,1,8.17,7.18,54,54,0,0,1,7.08,16.69c3.59,13.48,4.94,27.26,5.23,41.15a25.57,25.57,0,0,1-19.48,25.82c-.93.24-1.08.64-1.08,1.46,0,7.6.05,15.2,0,22.8a3.52,3.52,0,0,0,1.34,3q50.65,44.69,118.16,46.73a174.72,174.72,0,0,0,32.38-2.16,182.53,182.53,0,0,0,114.83-67.12,3.74,3.74,0,0,0,.75-2.16q0-72.17,0-144.35v-1.39H281.28c-.4,0-.81,0-1.2,0a5.23,5.23,0,0,1-5-4.81,5.11,5.11,0,0,1,3.76-5.33,10.4,10.4,0,0,1,2.5-.23h55.49c0-1.86,0-3.53,0-5.2a4.84,4.84,0,0,1,3-4.56,5,5,0,0,1,5.42.63,5.42,5.42,0,0,1,1.93,4.68q0,72.58,0,145.19ZM79.74,271.08a201.15,201.15,0,0,0-3-24.76,84.44,84.44,0,0,0-5-17.71,18.78,18.78,0,0,0-4.49-7c-2-1.78-4.17-1.79-6.08.1a12.44,12.44,0,0,0-2.55,3.3,74.05,74.05,0,0,0-4.05,9.82c-4.11,13.69-5.64,27.76-5.7,42,0,8.11,5.93,14.6,14.32,15.36a15.06,15.06,0,0,0,16-12.06C79.75,277.18,79.58,274.1,79.74,271.08Z"/><path class="cls-1" d="M0,200.15c.15,1.85.32,3.7.44,5.55A192.79,192.79,0,0,0,159.6,383a188.94,188.94,0,0,0,37.24,2.8c37.29-.89,71.58-11.49,102.65-32.15a192.73,192.73,0,0,0,83.72-129.94A181.51,181.51,0,0,0,385.49,200a3.39,3.39,0,0,1,.19-.76V386.13H0Z"/><path class="cls-1" d="M385.68,187c-.15-2-.31-4-.44-6.06A192.95,192.95,0,0,0,255.83,10.74,193.1,193.1,0,0,0,70.37,44.09,192.43,192.43,0,0,0,2.46,162.19,181,181,0,0,0,.19,185.08,4.92,4.92,0,0,1,0,186V0H385.68Z"/><path class="cls-1" d="M347.15,290.44v-1.51q0-72.6,0-145.19a5.42,5.42,0,0,0-1.93-4.68,5,5,0,0,0-5.42-.63,4.84,4.84,0,0,0-3,4.56c0,1.67,0,3.34,0,5.2H281.36a10.4,10.4,0,0,0-2.5.23,5.11,5.11,0,0,0-3.76,5.33,5.23,5.23,0,0,0,5,4.81c.39,0,.8,0,1.2,0h55.57V160q0,72.18,0,144.35a3.74,3.74,0,0,1-.75,2.16A182.53,182.53,0,0,1,221.24,373.6a174.72,174.72,0,0,1-32.38,2.16q-67.5-2-118.16-46.73a3.52,3.52,0,0,1-1.34-3c.07-7.6,0-15.2,0-22.8,0-.82.15-1.22,1.08-1.46A25.57,25.57,0,0,0,89.94,276c-.29-13.89-1.64-27.67-5.23-41.15a54,54,0,0,0-7.08-16.69A18.65,18.65,0,0,0,69.46,211a14.28,14.28,0,0,0-16,3.93c-4.23,4.58-6.62,10.14-8.5,15.94a126.19,126.19,0,0,0-5.29,27.48c-.54,5.89-.95,11.8-1.14,17.7A25.67,25.67,0,0,0,58,301.82c.85.22,1.06.53,1.05,1.35,0,4.68,0,9.36,0,14.41-23-25-38.34-53.74-45-86.75-10.18-50.4-1.42-97.51,27.45-140.15A182.21,182.21,0,0,1,299.3,44.53C383.69,105.45,395.62,215.68,347.15,290.44ZM234.06,302.59V251.14c1.66,0,3.29,0,4.92,0a5.15,5.15,0,1,0,0-10.29q-46.12,0-92.26,0a6.15,6.15,0,0,0-2,.31,5.14,5.14,0,0,0,1.67,10c1.71.05,3.42,0,5.19,0v51.37H106.83a5.83,5.83,0,0,0-2.14.13,9.18,9.18,0,0,0-3.25,1.79,4.62,4.62,0,0,0-.78,5.37,5,5,0,0,0,4.86,3.08c6.2,0,12.4,0,18.6,0H279.73c3.41,0,5.65-2,5.67-5.15s-2.14-5.16-5.6-5.16H234.06ZM223.62,45.35H208.48a5.16,5.16,0,1,0,0,10.31q10.08,0,20.15,0A5.1,5.1,0,0,0,234,50.25q0-10,0-20a5.14,5.14,0,0,0-5.49-5.47H193.24c-3.44,0-5.56,2.11-5.56,5.5q0,18.36,0,36.72a1.69,1.69,0,0,1-.92,1.71q-27.72,16.59-55.41,33.23c-6.07,3.64-12.14,7.26-18.19,10.91a5.18,5.18,0,0,0-1.59,7.75c1.67,2.15,4.53,2.57,7.1,1q36.54-21.91,73.07-43.87a1.79,1.79,0,0,1,2.14,0q35.79,21.53,71.62,43a24.56,24.56,0,0,0,2.28,1.32,5.17,5.17,0,0,0,7.21-3.39c.59-2.41-.43-4.57-2.84-6Q235.58,90.7,199,68.76A1.78,1.78,0,0,1,198,67q0-15.3,0-30.59c0-.42,0-.84.05-1.24h25.57ZM192.85,333.46h107a13.67,13.67,0,0,0,2-.11,5.09,5.09,0,0,0,4.11-4.69c.14-3.41-2.18-5.58-6-5.58H85.73a11,11,0,0,0-1.91.15,5.1,5.1,0,0,0-3.93,6.63c.78,2.4,2.63,3.6,5.58,3.6Zm61.68-123.55v76.18a13.48,13.48,0,0,0,.08,1.8,5.09,5.09,0,0,0,4.91,4.41c3.29.08,5.4-2.28,5.4-6.09q0-76.24,0-152.49a10.1,10.1,0,0,0-.17-1.9,4.8,4.8,0,0,0-3.92-4,5,5,0,0,0-5.22,1.87,5.94,5.94,0,0,0-1.08,4Q254.54,171.76,254.53,209.91Zm-123.45,2.66V138.66c0-.4,0-.8,0-1.2a5.11,5.11,0,0,0-5.75-4.63c-2.9.46-4.56,2.5-4.56,5.65V285.94a4.15,4.15,0,0,0,0,1.32,11.25,11.25,0,0,0,1.31,3.25,4.88,4.88,0,0,0,5.75,1.44,5,5,0,0,0,3.22-4.87Q131.09,249.84,131.08,212.57ZM48.83,148.19c0-.62,0-1.09,0-1.56,0-1.44,0-2.89-.11-4.31A5,5,0,0,0,44,138c-3.29-.18-5.58,2.11-5.58,5.61q0,27.83,0,55.66c0,.24,0,.48,0,.72a5.15,5.15,0,0,0,4.75,4.87,5,5,0,0,0,5.37-3.67,9.84,9.84,0,0,0,.24-2.49q0-19.24,0-38.5v-1.58h55.61c.36,0,.72,0,1.08,0a5.15,5.15,0,0,0,5-4.4,5,5,0,0,0-3.52-5.68,9.14,9.14,0,0,0-2.61-.29H48.83ZM182.6,199.75q0-7.49,0-15c0-3.55-2.15-5.69-5.67-5.69H157.25c-3.47,0-5.6,2.11-5.6,5.61q0,15,0,30c0,3.56,2.11,5.63,5.7,5.63h19.43c3.71,0,5.81-2.1,5.81-5.79Q182.61,207.13,182.6,199.75ZM203.08,138v15c0,3.41,2.14,5.59,5.51,5.6h19.92a5.18,5.18,0,0,0,5.49-5.49V122.86c0-3.4-2.13-5.51-5.56-5.51h-19.8a5.15,5.15,0,0,0-5.55,5.52Q203.08,130.43,203.08,138Zm-51.44-.1c0,5,0,10,0,15,0,3.58,2.1,5.68,5.65,5.69H177a5.24,5.24,0,0,0,5.62-5.63q0-15,0-30c0-3.48-2.16-5.61-5.62-5.61H157.42c-3.73,0-5.77,2-5.77,5.79Q151.64,130.51,151.64,137.89ZM234,199.75V184.63c0-3.41-2.13-5.56-5.52-5.56H208.56a5.16,5.16,0,0,0-5.47,5.49q0,15.12,0,30.23a5.16,5.16,0,0,0,5.46,5.51h19.92a5.18,5.18,0,0,0,5.53-5.56Zm51.36,5.08c0,5,0,10,0,15,0,3.56,2.09,5.56,5.62,5.56h20a5,5,0,0,0,5.29-5.26q0-15.3,0-30.59a5,5,0,0,0-5.3-5.26q-10.12,0-20.27,0a6.06,6.06,0,0,0-1.65.18c-2.37.68-3.71,2.6-3.72,5.37C285.35,194.83,285.36,199.83,285.36,204.83Zm31,61.67q0-7.49,0-15c0-3.42-2.09-5.54-5.52-5.55q-10,0-19.91,0a5.12,5.12,0,0,0-5.5,5.47q-.06,15.1,0,30.23c0,3.44,2.14,5.47,5.59,5.48h19.8c3.43,0,5.54-2.1,5.54-5.52Q316.33,274.06,316.32,266.5Zm-236.64-77H90v1.48q0,12,0,24.1a5.15,5.15,0,1,0,10.29.11q.06-15.47,0-30.94a5.07,5.07,0,0,0-5.11-5.13q-10.37-.06-20.74,0a5,5,0,0,0-5,5.16c0,3.4,0,6.8,0,10.2a5.16,5.16,0,1,0,10.31,0C79.69,192.84,79.68,191.2,79.68,189.46Z"/><path class="cls-1" d="M79.74,271.08c-.16,3,0,6.1-.55,9.05a15.06,15.06,0,0,1-16,12.06c-8.39-.76-14.35-7.25-14.32-15.36.06-14.25,1.59-28.32,5.7-42A74.05,74.05,0,0,1,58.59,225a12.44,12.44,0,0,1,2.55-3.3c1.91-1.89,4.07-1.88,6.08-.1a18.78,18.78,0,0,1,4.49,7,84.44,84.44,0,0,1,5,17.71A201.15,201.15,0,0,1,79.74,271.08Z"/><path d="M234.06,302.59H279.8c3.46,0,5.61,2,5.6,5.16s-2.26,5.15-5.67,5.15H124.12c-6.2,0-12.4,0-18.6,0a5,5,0,0,1-4.86-3.08,4.62,4.62,0,0,1,.78-5.37,9.18,9.18,0,0,1,3.25-1.79,5.83,5.83,0,0,1,2.14-.13h44.75V251.14c-1.77,0-3.48,0-5.19,0a5.14,5.14,0,0,1-1.67-10,6.15,6.15,0,0,1,2-.31q46.13,0,92.26,0a5.15,5.15,0,1,1,0,10.29c-1.63,0-3.26,0-4.92,0Zm-10.42-.15V251.21H198.06V271.6c3.17.54,4.94,2.32,5.08,5s-1.55,4.61-5.09,5.52v20.28Zm-36-51.21H162.07v51.19h25.54V282.09c-3.13-.55-5-2.2-5-4.79a7,7,0,0,1,.82-3.29c.85-1.62,2.49-2.22,4.24-2.42Z"/><path d="M223.62,45.35V35.14H198.05c0,.4-.05.82-.05,1.24q0,15.3,0,30.59a1.78,1.78,0,0,0,1,1.79q36.6,21.92,73.18,43.88c2.41,1.45,3.43,3.61,2.84,6a5.17,5.17,0,0,1-7.21,3.39,24.56,24.56,0,0,1-2.28-1.32q-35.82-21.48-71.62-43a1.79,1.79,0,0,0-2.14,0q-36.52,22-73.07,43.87c-2.57,1.54-5.43,1.12-7.1-1a5.18,5.18,0,0,1,1.59-7.75c6-3.65,12.12-7.27,18.19-10.91q27.7-16.62,55.41-33.23A1.69,1.69,0,0,0,187.7,67q0-18.36,0-36.72c0-3.39,2.12-5.5,5.56-5.5h35.27A5.14,5.14,0,0,1,234,30.22q0,10,0,20a5.1,5.1,0,0,1-5.41,5.41q-10.08,0-20.15,0a5.16,5.16,0,1,1,0-10.31h15.14Z"/><path d="M192.85,333.46H85.47c-3,0-4.8-1.2-5.58-3.6a5.1,5.1,0,0,1,3.93-6.63,11,11,0,0,1,1.91-.15H300c3.82,0,6.14,2.17,6,5.58a5.09,5.09,0,0,1-4.11,4.69,13.67,13.67,0,0,1-2,.11Z"/><path d="M254.53,209.91q0-38.15,0-76.3a5.94,5.94,0,0,1,1.08-4,5,5,0,0,1,5.22-1.87,4.8,4.8,0,0,1,3.92,4,10.1,10.1,0,0,1,.17,1.9q0,76.25,0,152.49c0,3.81-2.11,6.17-5.4,6.09a5.09,5.09,0,0,1-4.91-4.41,13.48,13.48,0,0,1-.08-1.8Z"/><path d="M131.08,212.57q0,37.26,0,74.51a5,5,0,0,1-3.22,4.87,4.88,4.88,0,0,1-5.75-1.44,11.25,11.25,0,0,1-1.31-3.25,4.15,4.15,0,0,1,0-1.32V138.48c0-3.15,1.66-5.19,4.56-5.65a5.11,5.11,0,0,1,5.75,4.63c0,.4,0,.8,0,1.2Z"/><path d="M48.83,148.19h55.51a9.14,9.14,0,0,1,2.61.29,5,5,0,0,1,3.52,5.68,5.15,5.15,0,0,1-5,4.4c-.36,0-.72,0-1.08,0H48.83v1.58q0,19.25,0,38.5a9.84,9.84,0,0,1-.24,2.49,5,5,0,0,1-5.37,3.67A5.15,5.15,0,0,1,38.46,200c0-.24,0-.48,0-.72q0-27.84,0-55.66c0-3.5,2.29-5.79,5.58-5.61a5,5,0,0,1,4.69,4.36c.14,1.42.08,2.87.11,4.31C48.84,147.1,48.83,147.57,48.83,148.19Z"/><path d="M182.6,199.75q0,7.38,0,14.76c0,3.69-2.1,5.79-5.81,5.79H157.35c-3.59,0-5.7-2.07-5.7-5.63q0-15,0-30c0-3.5,2.13-5.61,5.6-5.61h19.67c3.52,0,5.67,2.14,5.67,5.69Q182.61,192.26,182.6,199.75ZM162,209.89H172.1V189.46H162Z"/><path d="M203.08,138q0-7.56,0-15.12a5.15,5.15,0,0,1,5.55-5.52h19.8c3.43,0,5.55,2.11,5.56,5.51v30.23a5.18,5.18,0,0,1-5.49,5.49H208.59c-3.37,0-5.5-2.19-5.51-5.6Zm20.52,10.12V127.74H213.45v20.37Z"/><path d="M151.64,137.89q0-7.38,0-14.75c0-3.75,2-5.79,5.77-5.79H177c3.46,0,5.62,2.13,5.62,5.61q0,15,0,30a5.24,5.24,0,0,1-5.62,5.63H157.3c-3.55,0-5.64-2.11-5.65-5.69C151.63,147.89,151.64,142.89,151.64,137.89Zm20.49-10.14H162v20.36h10.09Z"/><path d="M234,199.75v15a5.18,5.18,0,0,1-5.53,5.56H208.55a5.16,5.16,0,0,1-5.46-5.51q0-15.1,0-30.23a5.16,5.16,0,0,1,5.47-5.49h19.92c3.39,0,5.51,2.15,5.52,5.56Zm-20.52-10.3v20.43h10.13V189.45Z"/><path d="M285.36,204.83c0-5,0-10,0-15,0-2.77,1.35-4.69,3.72-5.37a6.06,6.06,0,0,1,1.65-.18q10.14,0,20.27,0a5,5,0,0,1,5.3,5.26q0,15.28,0,30.59a5,5,0,0,1-5.29,5.26H291c-3.53,0-5.59-2-5.62-5.56C285.34,214.83,285.36,209.83,285.36,204.83ZM305.88,215V194.68H295.8V215Z"/><path d="M316.32,266.5q0,7.56,0,15.12c0,3.42-2.11,5.51-5.54,5.52H291c-3.45,0-5.58-2-5.59-5.48q-.06-15.12,0-30.23a5.12,5.12,0,0,1,5.5-5.47q9.94,0,19.91,0c3.43,0,5.52,2.13,5.52,5.55Q316.33,259,316.32,266.5Zm-20.55-10.15v20.37h10.12V256.35Z"/><path d="M79.68,189.46c0,1.74,0,3.38,0,5a5.16,5.16,0,1,1-10.31,0c0-3.4,0-6.8,0-10.2a5,5,0,0,1,5-5.16q10.36-.06,20.74,0a5.07,5.07,0,0,1,5.11,5.13q.06,15.47,0,30.94A5.15,5.15,0,1,1,90,215q0-12,0-24.1v-1.48Z"/><path class="cls-1" d="M223.64,302.44H198.05V282.16c3.54-.91,5.23-2.76,5.09-5.52s-1.91-4.5-5.08-5V251.21h25.58Z"/><path class="cls-1" d="M187.65,251.23v20.36c-1.75.2-3.39.8-4.24,2.42a7,7,0,0,0-.82,3.29c.06,2.59,1.89,4.24,5,4.79v20.33H162.07V251.23Z"/><path class="cls-1" d="M162,209.89V189.46H172.1v20.43Z"/><path class="cls-1" d="M223.6,148.11H213.45V127.74H223.6Z"/><path class="cls-1" d="M172.13,127.75v20.36H162V127.75Z"/><path class="cls-1" d="M213.48,189.45h10.13v20.43H213.48Z"/><path class="cls-1" d="M305.88,215H295.8V194.68h10.08Z"/><path class="cls-1" d="M295.77,256.35h10.12v20.37H295.77Z"/></g></g></svg>